<?xml version="1.0" standalone="no"?><!DOCTYPE svg PUBLIC "-//W3C//DTD SVG 1.1//EN" "http://www.w3.org/Graphics/SVG/1.1/DTD/svg11.dtd"><svg t="1619867283696" class="icon" viewBox="0 0 1024 1024" version="1.1" xmlns="http://www.w3.org/2000/svg" p-id="2852" xmlns:xlink="http://www.w3.org/1999/xlink" width="64" height="64"><defs><style type="text/css"></style></defs><path d="M774.9 217.5C621.5 64 371.8 65.2 218.8 220.7c-150.4 152.8-150 400 0.8 551.3 123.3 123.7 309.1 147.3 456.8 70.9 16.1-8.3 35.7-5.4 48.4 7.4l74.4 74.4c17.5 17.5 45.9 17.4 63.4-0.1l64.4-64.4c17.5-17.6 17.6-46 0.1-63.4l-74.4-74.4c-12.8-12.8-15.7-32.3-7.4-48.4 76.4-147.7 53-333.2-70.4-456.5z" fill="#FF556E" p-id="2853"></path><path d="M482.9 103.6c-96.1 3.9-191.1 42.9-264.2 117.1-45.1 45.8-76.6 100.2-94.6 157.8 58.3-148 194.9-256.7 358.8-274.9zM927.1 796.6l-24.5-24.5C870.1 823.7 827.1 868 776.7 902l22.4 22.4c17.5 17.5 45.9 17.4 63.4-0.1l64.4-64.4c17.7-17.4 17.7-45.8 0.2-63.3z" fill="#FF556E" p-id="2854"></path><path d="M135.2 518.3c0-208.8 169.2-378 378-378 193.9 0 353.8 146.1 375.5 334.2-4.5-93.6-42.4-185.7-113.8-257-80.2-80.2-186.7-118.1-292-113.9-163.9 18.2-300.5 126.9-358.8 275C82.1 513.2 114 666 219.6 772c35.2 35.3 75.5 62.5 118.6 81.5-120.7-63.2-203-189.6-203-335.2zM902.7 772.2l-49.9-49.9c-5.1-5.1-8.6-11.2-10.5-17.8-31.7 55.9-77.2 102.9-131.9 136.4 5.3 2 10.2 5.1 14.4 9.3l51.9 51.9c50.5-34.1 93.5-78.4 126-129.9z" fill="#FF5F71" p-id="2855"></path><path d="M842.3 704.4c-2.8-10-1.9-20.9 3.1-30.6 32.2-62.2 46.6-131.2 43.3-199.4-21.7-188-181.5-334.1-375.5-334.1-208.8 0-378 169.2-378 378 0 145.6 82.3 272 202.9 335.1 107.7 47.5 232.7 44 338.2-10.6 10.8-5.6 23.2-6.1 34-2 54.8-33.4 100.3-80.5 132-136.4zM494.6 815.7c-175.6 0-318-142.4-318-318s142.4-318 318-318 318 142.4 318 318-142.4 318-318 318z" fill="#FF6974" p-id="2856"></path><path d="M494.6 179.7c-175.6 0-318 142.4-318 318s142.4 318 318 318 318-142.4 318-318-142.4-318-318-318z m-18.7 555.4c-142.5 0-258-115.5-258-258s115.5-258 258-258 258 115.5 258 258-115.5 258-258 258z" fill="#FF7377" p-id="2857"></path><path d="M475.9 219.2c-142.5 0-258 115.5-258 258s115.5 258 258 258 258-115.5 258-258-115.5-258-258-258z m-18.6 435.3c-109.3 0-197.9-88.6-197.9-197.9s88.6-198 197.9-198 197.9 88.6 197.9 197.9-88.6 198-197.9 198z" fill="#FF7E7A" p-id="2858"></path><path d="M457.3 258.6c-109.3 0-197.9 88.6-197.9 197.9s88.6 198 197.9 198 197.9-88.6 197.9-197.9-88.6-198-197.9-198z m-18.7 315.3c-76.2 0-137.9-61.7-137.9-137.9s61.8-138 137.9-138 137.9 61.7 137.9 137.9-61.7 138-137.9 138z" fill="#FF887D" p-id="2859"></path><path d="M438.6 435.9m-137.9 0a137.9 137.9 0 1 0 275.8 0 137.9 137.9 0 1 0-275.8 0Z" fill="#FF9280" p-id="2860"></path><path d="M498.9 121.2c48.4 0 95.6 9.2 140.2 27.2 46.2 18.7 87.6 46.2 123.1 81.7 28.8 28.8 52.5 61.7 70.4 97.9 17.3 34.9 29 72.3 34.6 111.1 5.6 38.4 5.3 77.2-1.1 115.5-6.4 38.8-18.8 76.1-36.8 110.9-12 23.2-7.7 51.1 10.6 69.4l74.4 74.4c10.4 10.4 10.4 27.5-0.1 38l-64.4 64.4c-5.1 5.1-11.9 7.9-19.1 7.9-7.1 0-13.8-2.8-18.9-7.8l-74.4-74.4c-11.2-11.2-26.1-17.3-41.9-17.3-9.5 0-19 2.3-27.5 6.7-52.8 27.3-112.3 41.8-172.1 41.8-48.5 0-95.8-9.2-140.5-27.3-46.3-18.8-87.7-46.4-123.3-82-143.6-144.3-143.9-380.2-0.5-526 36-36.5 78-64.8 124.9-84.1 45.3-18.5 93.2-28 142.4-28m0-18c-101.5 0-203 39.2-280.1 117.5-150.4 152.8-150 400 0.8 551.3 76.2 76.4 176.3 114.7 276.5 114.7 61.9 0 123.9-14.6 180.3-43.8 6.1-3.2 12.7-4.7 19.2-4.7 10.7 0 21.3 4.1 29.2 12.1l74.4 74.4c8.7 8.7 20.2 13.1 31.6 13.1 11.5 0 23-4.4 31.8-13.2l64.4-64.4c17.5-17.6 17.6-46 0.1-63.4l-74.4-74.4c-12.8-12.8-15.7-32.3-7.4-48.4 76.3-147.5 52.9-333-70.4-456.4-76.1-76.3-176-114.4-276-114.4z" fill="#EF4868" p-id="2861"></path><path d="M500.2 288.6c110.4 0 199.9 89.5 199.9 199.9s-89.5 199.9-199.9 199.9-199.9-89.5-199.9-199.9 89.5-199.9 199.9-199.9z" fill="#FFC7C7" p-id="2862"></path><path d="M223.7 336.1c-3.6 0-7.1-1.1-10.3-3.2-8.2-5.7-10.1-16.9-4.5-25.1 42.9-61.4 90.1-96.5 92-98 8-5.9 19.3-4.2 25.2 3.8 5.9 8 4.2 19.3-3.8 25.2-0.8 0.6-44.7 33.5-83.9 89.6-3.4 5-9 7.7-14.7 7.7zM188.1 397.8c-2.8 0-5.6-0.6-8.2-2-8.9-4.5-12.4-15.4-7.8-24.2l5.1-10c4.5-8.9 15.4-12.4 24.2-7.8 8.9 4.5 12.4 15.4 7.8 24.2l-5.1 10c-3.2 6.2-9.5 9.8-16 9.8z" fill="#FFFFFF" p-id="2863"></path></svg>